<svg id="Layer_1" data-name="Layer 1" xmlns="http://www.w3.org/2000/svg" viewBox="0 0 258 125">
  <defs>
    <style>
      .cls-1 {
        isolation: isolate;
      }

      .cls-2 {
        fill: #fff;
      }
    </style>
  </defs>
  <title>Logo</title>
  <g id="HZPC">
    <g class="cls-1">
      <path class="cls-2" d="M144.37,52.23v21H139V65h-17.1v8.22h-5.4v-21h5.4v8.22H139V52.23Z"/>
      <path class="cls-2" d="M170.32,56.76l-16,11.93h16v4.54h-23.7V68.69l15.93-11.93H146.62V52.23h23.7Z"/>
      <path class="cls-2" d="M197.11,59.94c0,4.68-3.27,7.68-8,7.68H178v5.61h-5.4v-21h16.5C193.84,52.23,197.11,55.26,197.11,59.94Zm-5.4,0c0-3.18-2.52-3.18-4.14-3.18H178v6.33h9.6C189.19,63.09,191.71,63.09,191.71,59.94Z"/>
      <path class="cls-2" d="M219.24,65h5.56c-.82,5.59-5,8.53-13,8.53-9.24,0-13.2-3.84-13.2-10.83s4-10.77,13.2-10.77c8,0,12.23,2.93,13,8.54h-5.56c-.75-2.87-3.3-4-7.47-4-5.49,0-7.8,1.95-7.8,6.24s2.34,6.3,7.8,6.3C215.9,69,218.46,67.84,219.24,65Z"/>
    </g>
  </g>
  <g id="Group_36" data-name="Group 36">
    <g>
      <path id="Path_8" data-name="Path 8" class="cls-2" d="M96,52.06a35.4,35.4,0,0,0-6.5-12.12c-6.27,25.63-25,45.61-48.57,51.3a35.67,35.67,0,0,0,13.76,6.13C73.26,89.08,88.18,72.67,96,52.06Z"/>
      <path id="Path_9" data-name="Path 9" class="cls-2" d="M62.48,98.09a35.59,35.59,0,0,0,35.1-35.6h0c0-1,0-2.06-.14-3.08C89.75,76.08,77.47,89.68,62.48,98.09Z"/>
      <path id="Path_10" data-name="Path 10" class="cls-2" d="M46,30.67a35.75,35.75,0,0,0-16,16A19.14,19.14,0,0,0,46,30.67Z"/>
      <path id="Path_11" data-name="Path 11" class="cls-2" d="M73.85,28.92a35.5,35.5,0,0,0-10.94-2c-.68,20.46-16.43,36.88-35.72,36.88l-.8,0a35.72,35.72,0,0,0,2.26,11.29C52.16,74.27,71.37,54.32,73.85,28.92Z"/>
      <path id="Path_12" data-name="Path 12" class="cls-2" d="M60.13,26.93a35.46,35.46,0,0,0-11.7,2.62A21.43,21.43,0,0,1,28.94,49.17,35.37,35.37,0,0,0,26.39,61l.8,0C44.94,61,59.45,45.85,60.13,26.93Z"/>
      <path id="Path_13" data-name="Path 13" class="cls-2" d="M86.48,36.68A35.43,35.43,0,0,0,77,30.19C74,56.28,54.29,76.76,30,78.24a35.41,35.41,0,0,0,7.34,10C61.55,83.67,80.94,63.11,86.48,36.68Z"/>
    </g>
  </g>
</svg>
